#!OML:ASF E:\Mandelcareful walks\Project 1\Capture day 1\Session 1\Subject1.ASF
:FULLY-SPECIFIED
:DEGREES
1064
root 1.44301 16.529 -0.241563 493.558 -89.1187 592.609
lowerback 9.82563 2.35615 1.57663
upperback 7.66025 2.87646 0.91506
thorax 2.50165 1.337 -0.153921
lowerneck -19.447 12.6751 8.77832
upperneck 30.8264 19.0141 -11.222
head 16.391 7.35148 -2.31209
rclavicle -1.96797e-014 -4.77083e-015
rhumerus -22.0609 6.30639 -82.1886
rradius 46.1002
rwrist -20.1088
rhand -13.3232 -29.8636
rfingers 7.12502
rthumb 12.7816 -59.4524
lclavicle -1.96797e-014 -4.77083e-015
lhumerus -30.1828 -1.94603 90.0085
lradius 28.9241
lwrist 13.6995
lhand -20.8078 -13.6219
lfingers 7.12502
lthumb 5.55994 16.2852
rfemur 15.697 -5.97016 16.3104
rtibia -5.40694e-014
rfoot -13.4911 -14.8919
rtoes -1.55049
lfemur -33.192 9.71933 -14.1712
ltibia 36.2881
lfoot -6.51964 7.80018
ltoes 2.7201
1065
root 1.27905 16.4509 -0.114382 487.537 -89.4478 598.672
lowerback 10.0842 2.37127 1.04532
upperback 7.59405 2.86746 0.842619
thorax 2.26564 1.31325 0.0558003
lowerneck -19.3368 12.7598 8.72409
upperneck 30.7531 19.131 -11.1563
head 16.3272 7.41275 -2.25206
rclavicle -1.2921e-014 8.34896e-015
rhumerus -22.5387 5.97476 -82.2831
rradius 45.1744
rwrist -20.1739
rhand -13.088 -29.6893
rfingers 7.12502
rthumb 13.0084 -59.2637
lclavicle -1.2921e-014 8.34896e-015
lhumerus -29.8506 -1.9047 90.0552
lradius 29.0605
lwrist 13.4925
lhand -20.7167 -13.5605
lfingers 7.12502
lthumb 5.64791 16.3443
rfemur 16.422 -5.76644 15.6455
rtibia -3.18055e-015
rfoot -12.805 -15.7049
rtoes -0.447025
lfemur -32.6327 10.1599 -15.2496
ltibia 37.2425
lfoot -7.88664 6.85964
ltoes 2.33619
1066
root 1.06967 16.5297 0.0203238 471.759 -89.8548 614.551
lowerback 9.95109 2.42424 0.603942
upperback 7.6068 2.90936 0.704436
thorax 2.3352 1.32215 0.161577
lowerneck -19.5025 12.7032 8.36062
upperneck 30.8392 19.0213 -10.7342
head 16.2762 7.37363 -2.03888
rclavicle 4.73108e-014 -4.37326e-015
rhumerus -23.0194 5.36959 -82.3639
rradius 44.1736
rwrist -19.9961
rhand -13.0503 -29.8316
rfingers 7.12502
rthumb 13.0447 -59.4037
lclavicle 4.73108e-014 -4.37326e-015
lhumerus -29.451 -1.95733 90.0785
lradius 29.3568
lwrist 13.323
lhand -20.4395 -13.0972
lfingers 7.12502
lthumb 5.91549 16.8002
rfemur 14.1157 -5.70665 14.8838
rtibia 5.59905
rfoot -14.6832 -16.0765
rtoes 0.0670241
lfemur -33.1647 8.84298 -15.4159
ltibia 38.0673
lfoot -8.72518 7.37138
ltoes 7.50108
1067
root 0.890065 16.4899 0.150882 499.331 -90.0973 587.078
lowerback 9.95373 2.55109 0.267601
upperback 7.5465 3.06068 0.541316
thorax 2.26103 1.39104 0.167378
lowerneck -19.5063 12.5576 8.2328
upperneck 30.8392 18.7836 -10.5653
head 16.2019 7.28557 -2.00621
rclavicle 1.25234e-014 -7.95139e-016
rhumerus -23.7042 4.34814 -82.5043
rradius 43.2911
rwrist -19.5231
rhand -13.3654 -29.5617
rfingers 7.12502
rthumb 12.741 -59.1529
lclavicle 1.25234e-014 -7.95139e-016
lhumerus -29.0924 -2.26318 90.0488
lradius 29.6638
lwrist 13.4609
lhand -20.4493 -12.821
lfingers 7.12502
lthumb 5.90601 17.0767
rfemur 12.9913 -5.45726 14.2459
rtibia 8.90216
rfoot -15.1833 -16.5966
rtoes -0.370375
lfemur -32.6615 9.59125 -16.5586
ltibia 38.8625
lfoot -9.72649 6.58389
ltoes 5.78073
1068
root 0.708686 16.4597 0.284883 499.951 -90.2722 586.537
lowerback 9.86531 2.62284 0.0469623
upperback 7.51976 3.14543 0.39273
thorax 2.27708 1.43025 0.133602
lowerneck -19.5718 12.3523 8.03043
upperneck 30.8801 18.4393 -10.277
head 16.1214 7.15622 -1.93477
rclavicle -7.15625e-015 1.47101e-014
rhumerus -24.3167 3.56881 -82.6819
rradius 42.2992
rwrist -19.296
rhand -13.9829 -28.7642
rfingers 7.12502
rthumb 12.1456 -58.3916
lclavicle -7.15625e-015 1.47101e-014
lhumerus -28.5728 -2.64391 90.0277
lradius 29.7052
lwrist 13.8582
lhand -20.7778 -13.1433
lfingers 7.12502
lthumb 5.58892 16.763
rfemur 12.0969 -5.2061 13.6501
rtibia 11.7365
rfoot -15.0331 -17.2409
rtoes -0.958697
lfemur -32.1341 9.81702 -17.3425
ltibia 39.434
lfoot -10.8186 6.15467
ltoes 5.84648
1069
root 0.519506 16.4927 0.42538 501.449 -90.4382 585.159
lowerback 9.67308 2.66167 -0.0648677
upperback 7.56157 3.1917 0.238869
thorax 2.4284 1.45303 0.0433455
lowerneck -19.897 12.0196 7.63644
upperneck 30.922 17.9295 -9.8913
head 16.0455 6.9386 -1.81799
rclavicle -4.17448e-015 -7.55382e-015
rhumerus -24.5664 2.89525 -82.8143
rradius 41.0725
rwrist -19.2289
rhand -13.6704 -29.1194
rfingers 7.12502
rthumb 12.4469 -58.7288
lclavicle -4.17448e-015 -7.55382e-015
lhumerus -28.0183 -3.04834 90.0375
lradius 30.0181
lwrist 14.3965
lhand -21.138 -13.3353
lfingers 7.12502
lthumb 5.24109 16.5798
rfemur 10.3185 -5.632 12.8881
rtibia 16.0948
rfoot -15.2498 -17.2589
rtoes -0.260282
lfemur -31.9667 9.44168 -17.8493
ltibia 39.9105
lfoot -11.6886 6.22351
ltoes 6.87642
1070
root 0.351582 16.4599 0.546364 520.806 -90.256 565.799
lowerback 9.78677 2.76542 -0.182688
upperback 7.55995 3.31807 0.252168
thorax 2.35708 1.51047 0.107938
lowerneck -20.3415 11.4994 6.93051
upperneck 30.9584 17.2293 -9.45015
head 15.935 6.6084 -1.66821
rclavicle -3.85642e-014 9.93923e-015
rhumerus -24.8142 2.29479 -82.8149
rradius 39.818
rwrist -19.0343
rhand -12.1315 -30.1837
rfingers 7.12502
rthumb 13.9303 -59.697
lclavicle -3.85642e-014 9.93923e-015
lhumerus -27.6654 -3.3408 90.0796
lradius 30.6227
lwrist 15.0705
lhand -21.5197 -13.4864
lfingers 7.12502
lthumb 4.87254 16.4376
rfemur 9.26267 -5.38302 12.6999
rtibia 19.0143
rfoot -14.6069 -18.0971
rtoes 1.17625
lfemur -31.157 9.52698 -18.0949
ltibia 40.1811
lfoot -12.8134 6.00819
ltoes 7.58947
1071
root 0.180487 16.4565 0.668234 494.565 -90.328 592.048
lowerback 9.85343 2.79569 -0.694298
upperback 7.57658 3.31944 0.25522
thorax 2.30845 1.49005 0.392893
lowerneck -21.1259 10.6864 5.59844
upperneck 31.0366 16.1974 -8.64304
head 15.7833 6.10451 -1.32693
rclavicle 4.45278e-014 -6.36111e-015
rhumerus -25.0253 2.04436 -82.7467
rradius 38.4529
rwrist -18.4864
rhand -11.0524 -30.7226
rfingers 7.12502
rthumb 14.9701 -60.1615
lclavicle 4.45278e-014 -6.36111e-015
lhumerus -27.332 -3.43647 90.1921
lradius 31.3928
lwrist 15.781
lhand -21.8368 -13.5156
lfingers 7.12502
lthumb 4.56638 16.4152
rfemur 8.29627 -5.44021 12.0859
rtibia 21.6001
rfoot -13.3836 -18.7683
rtoes 1.9665
lfemur -30.3449 9.33217 -18.6362
ltibia 40.2883
lfoot -14.0367 5.59831
ltoes 7.39989
1072
root -0.0153311 16.5462 0.790785 483.032 -90.566 603.56
lowerback 9.85072 2.80794 -1.3531
upperback 7.5899 3.2886 0.260265
thorax 2.28722 1.44831 0.767551
lowerneck -21.8706 9.55758 4.25519
upperneck 31.0969 14.7509 -7.90655
head 15.6214 5.41994 -1.10082
rclavicle -1.00386e-014 9.93923e-015
rhumerus -25.168 1.78928 -82.6919
rradius 36.9132
rwrist -17.5493
rhand -10.7512 -30.9142
rfingers 7.12502
rthumb 15.2601 -60.3313
lclavicle -1.00386e-014 9.93923e-015
lhumerus -27.145 -3.62228 90.34
lradius 32.323
lwrist 16.5358
lhand -22.1352 -13.4542
lfingers 7.12502
lthumb 4.27817 16.4826
rfemur 7.17185 -5.7536 11.3676
rtibia 24.4865
rfoot -11.9018 -19.5803
rtoes 4.76944
lfemur -30.0361 8.66776 -19.0524
ltibia 40.2671
lfoot -14.6505 5.4702
ltoes 6.44839
1073
root -0.201585 16.5899 0.904062 473.236 -90.7868 613.241
lowerback 9.83635 2.88649 -2.04744
upperback 7.65365 3.34051 0.226427
thorax 2.32505 1.44504 1.11719
lowerneck -22.5531 8.17249 2.90522
upperneck 31.1133 12.9023 -7.02884
head 15.4248 4.59464 -0.893441
rclavicle -4.58199e-014 5.96354e-016
rhumerus -25.3116 1.42151 -82.6758
rradius 35.6085
rwrist -16.6007
rhand -10.7572 -30.7338
rfingers 7.12502
rthumb 15.2544 -60.1514
lclavicle -4.58199e-014 5.96354e-016
lhumerus -26.8318 -4.10549 90.445
lradius 33.0129
lwrist 17.3556
lhand -22.6639 -13.6393
lfingers 7.12502
lthumb 3.76767 16.3072
rfemur 6.0473 -6.07188 10.6562
rtibia 27.4205
rfoot -10.9616 -20.0107
rtoes 7.67727
lfemur -29.311 8.1867 -19.5084
ltibia 40.1473
lfoot -15.1871 5.43117
ltoes 7.98713
1074
root -0.381462 16.6055 1.01458 468.933 -91.1369 617.427
lowerback 9.72689 2.91689 -2.72648
upperback 7.7452 3.33418 0.113198
thorax 2.45229 1.41276 1.386
lowerneck -23.1777 6.58821 1.34228
upperneck 31.1333 10.7779 -5.88008
head 15.2227 3.67175 -0.586091
rclavicle 7.05686e-015 -2.84262e-014
rhumerus -25.4864 1.02762 -82.7164
rradius 34.539
rwrist -15.8015
rhand -10.8051 -30.268
rfingers 7.12502
rthumb 15.2083 -59.6891
lclavicle 7.05686e-015 -2.84262e-014
lhumerus -26.4905 -4.71086 90.4649
lradius 33.7544
lwrist 18.144
lhand -23.2383 -14.3185
lfingers 7.12502
lthumb 3.21296 15.637
rfemur 4.87995 -6.70239 9.77365
rtibia 30.4128
rfoot -9.74528 -20.2948
rtoes 12.1171
lfemur -28.3531 7.95365 -20.2294
ltibia 39.9829
lfoot -15.6912 5.57937
ltoes 9.01049
